<?xml version="1.0" standalone="no"?>
<!DOCTYPE svg PUBLIC "-//W3C//DTD SVG 20010904//EN"
 "http://www.w3.org/TR/2001/REC-SVG-20010904/DTD/svg10.dtd">
<svg version="1.0" xmlns="http://www.w3.org/2000/svg"
 width="736.000000pt" height="736.000000pt" viewBox="0 0 736.000000 736.000000"
 preserveAspectRatio="xMidYMid meet">
<metadata>
Created by potrace 1.16, written by Peter Selinger 2001-2019
</metadata>
<g transform="translate(0.000000,736.000000) scale(0.100000,-0.100000)"
fill="#000000" stroke="none">
<path d="M4892 6950 c-12 -5 -25 -16 -28 -25 -4 -8 -14 -15 -23 -15 -10 0 -32
-18 -51 -41 -24 -30 -35 -38 -41 -28 -11 19 -20 6 -21 -30 -1 -18 -4 -34 -8
-36 -4 -2 -6 6 -5 19 2 13 -1 29 -6 37 -6 10 -9 7 -9 -11 0 -24 -20 -67 -20
-44 0 7 -13 14 -30 16 -21 3 -35 -1 -49 -16 -18 -19 -18 -23 -4 -41 15 -20 15
-20 8 3 -4 13 -2 22 4 22 6 0 11 -5 11 -11 0 -6 6 -9 14 -6 8 3 17 -1 20 -10
9 -22 -3 -31 -15 -13 -8 12 -9 9 -5 -10 3 -14 6 -31 6 -37 0 -7 5 -13 11 -13
6 0 8 9 4 21 -5 15 -4 19 4 15 6 -4 11 -16 11 -27 0 -11 4 -17 10 -14 6 3 7
-1 4 -9 -4 -11 0 -16 11 -16 13 0 15 -3 7 -13 -11 -13 -7 -24 18 -44 14 -11
16 -6 14 39 -2 28 -7 54 -12 57 -12 8 -9 92 3 88 6 -2 17 -18 27 -36 24 -48
31 -51 24 -8 -5 28 -4 37 6 35 7 -2 16 -11 20 -21 4 -10 12 -16 17 -12 6 3 17
-7 25 -22 l15 -28 -3 33 c-1 17 -6 35 -9 39 -12 12 -7 19 13 19 11 0 20 -5 20
-10 0 -5 3 -7 6 -3 3 3 -7 23 -22 44 l-29 38 32 -25 c26 -20 31 -32 31 -61 -1
-38 7 -59 22 -59 5 0 5 11 -2 24 -13 29 -4 60 14 50 10 -6 11 -4 1 7 -25 26
-28 26 179 20 14 -1 45 -16 68 -36 52 -43 88 -48 39 -5 -19 16 -43 33 -54 36
-11 4 -22 10 -25 14 -9 12 -122 62 -127 56 -8 -7 -43 13 -43 24 0 6 15 10 33
11 l32 1 -25 11 c-43 21 -70 41 -70 54 0 15 -15 16 -48 3z"/>
<path d="M4450 6630 c0 -5 5 -10 11 -10 6 0 4 -7 -5 -15 -8 -8 -20 -15 -26
-15 -6 0 -8 -5 -5 -10 3 -6 -5 -14 -20 -20 -14 -5 -28 -16 -31 -24 -3 -8 -13
-12 -22 -9 -13 4 -14 3 -4 -5 12 -8 12 -13 1 -31 -8 -11 -17 -21 -21 -21 -5 0
-8 -6 -8 -14 0 -7 -7 -19 -15 -26 -9 -7 -13 -20 -10 -28 3 -8 1 -20 -4 -26 -5
-6 -11 -31 -14 -56 -2 -25 -2 -37 0 -26 3 10 9 24 14 30 5 6 17 20 25 31 15
20 15 20 9 -1 -3 -12 -1 -32 4 -45 9 -21 10 -22 11 -4 1 22 33 97 50 117 6 7
19 24 30 36 10 13 24 21 29 17 6 -3 11 0 11 9 0 8 5 16 11 18 7 2 7 12 0 30
-5 14 -7 29 -3 32 3 4 7 12 8 19 2 7 6 22 10 35 5 18 2 22 -15 22 -11 0 -21
-4 -21 -10z"/>
<path d="M6124 6623 c4 -7 23 -20 42 -29 26 -12 34 -22 32 -38 -2 -12 2 -20 8
-19 7 1 10 -6 7 -16 -3 -11 8 -32 27 -55 35 -39 65 -79 109 -145 17 -24 43
-58 58 -75 40 -46 73 -93 73 -106 0 -9 -27 18 -58 60 -1 2 -8 -2 -13 -10 -9
-12 -10 -12 -5 3 7 23 -34 89 -52 82 -7 -3 -10 0 -7 5 4 6 -6 26 -22 44 -52
61 -63 76 -63 85 0 4 -9 16 -20 26 -18 16 -20 16 -20 2 0 -10 4 -17 8 -17 4 0
8 -10 9 -22 2 -22 1 -22 -23 5 -13 15 -24 33 -24 40 0 8 3 7 9 -2 7 -10 9 -6
8 13 -2 23 -4 24 -14 10 -12 -16 -33 -12 -33 7 0 6 4 8 9 4 5 -3 13 0 17 6 5
9 -1 10 -19 5 -20 -5 -32 0 -51 21 -14 15 -28 24 -32 20 -6 -6 3 -17 59 -78 9
-10 17 -22 17 -25 0 -3 11 -20 25 -36 14 -17 23 -33 20 -37 -4 -3 -18 7 -31
22 -13 16 -29 25 -35 22 -5 -4 -19 3 -30 16 -10 12 -22 19 -26 15 -4 -3 6 -20
22 -36 18 -19 31 -26 36 -19 5 8 9 8 14 -1 4 -6 2 -17 -4 -23 -8 -8 -50 28
-154 131 -78 78 -146 142 -150 142 -4 0 10 -17 30 -38 131 -130 203 -217 197
-237 -4 -14 -3 -16 4 -7 7 10 18 3 46 -29 20 -23 36 -47 36 -51 0 -5 6 -6 13
-2 7 4 7 2 -2 -7 -10 -11 -15 -11 -18 -2 -3 7 -13 23 -24 35 l-20 23 6 -25 c6
-23 5 -24 -9 -7 -8 11 -12 26 -9 35 3 13 2 14 -4 4 -7 -9 -21 0 -56 37 -26 28
-47 49 -47 48 0 -2 -26 21 -57 50 -72 68 -94 70 -26 2 28 -28 61 -65 73 -82
13 -18 40 -45 61 -62 21 -16 38 -36 39 -43 0 -7 -18 1 -40 19 -53 43 -61 32
-13 -17 47 -48 105 -125 78 -104 -11 8 -29 26 -41 40 -12 14 -25 22 -29 19 -3
-4 8 -23 24 -42 17 -19 31 -40 31 -46 0 -6 9 -16 20 -23 11 -7 20 -19 20 -27
0 -8 18 -37 41 -63 23 -27 38 -52 35 -55 -3 -4 -6 -1 -6 5 0 7 -5 12 -11 12
-7 0 -5 -10 6 -26 26 -40 11 -39 -23 2 -17 20 -28 42 -26 49 3 6 -7 17 -21 23
-21 10 -24 17 -19 39 4 22 3 25 -5 13 -10 -13 -12 -13 -21 0 -5 8 -7 22 -5 31
3 9 -4 24 -16 35 -22 19 -22 19 -10 -3 13 -26 14 -33 3 -33 -5 0 -14 11 -20
25 -15 32 -27 32 -28 0 -1 -14 2 -22 7 -19 11 7 11 -7 0 -24 -7 -11 -9 -11
-14 2 -4 9 -13 16 -22 16 -9 0 -15 9 -15 24 0 24 -23 41 -41 30 -5 -3 -9 2 -9
10 0 9 -4 16 -10 16 -5 0 -10 -2 -10 -5 0 -13 46 -84 74 -115 30 -32 66 -83
66 -93 0 -12 -89 87 -105 117 -12 21 -23 32 -28 27 -8 -8 28 -69 58 -96 23
-21 66 -106 59 -117 -4 -7 -3 -8 4 -4 7 4 12 3 12 -2 0 -5 11 -26 25 -47 29
-42 28 -49 -7 -40 -17 4 -32 22 -49 56 -13 27 -29 47 -35 45 -13 -5 -50 80
-47 109 3 19 2 19 -5 1 -7 -17 -11 -14 -26 18 -9 20 -19 36 -21 36 -3 0 -5
-16 -5 -35 0 -24 5 -35 14 -35 21 0 30 -20 17 -33 -9 -9 -11 -8 -6 5 5 13 2
15 -13 11 -15 -3 -21 2 -26 22 -4 15 -4 35 -1 45 7 23 -14 67 -49 99 -14 14
-26 30 -26 37 0 7 -4 16 -10 19 -20 12 -9 -23 20 -66 16 -24 30 -52 30 -62 0
-10 5 -15 10 -12 6 4 10 -7 9 -27 0 -21 -3 -27 -7 -17 -9 20 -42 60 -66 79
-17 13 -19 13 -10 0 39 -64 88 -137 98 -145 6 -6 24 -35 40 -65 16 -30 35 -62
41 -70 7 -8 30 -46 50 -85 21 -38 46 -82 56 -97 11 -14 19 -31 19 -37 0 -6 4
-11 8 -11 9 0 36 -60 33 -74 -1 -5 6 -5 16 -2 9 4 14 4 10 0 -4 -4 -1 -17 7
-30 8 -12 12 -24 9 -28 -7 -6 -53 57 -53 72 0 6 -6 12 -14 15 -8 3 -22 24 -32
46 -10 23 -21 41 -26 41 -4 0 -8 7 -8 16 0 8 -4 12 -10 9 -9 -6 -14 6 -11 30
0 6 -12 24 -27 41 -15 17 -26 36 -24 42 2 7 -1 12 -7 12 -6 0 -11 5 -11 12 0
6 -19 36 -42 67 -59 79 -60 80 -53 46 5 -25 4 -27 -5 -12 -6 9 -9 26 -5 35 3
12 -5 29 -21 48 -27 29 -27 29 -11 2 21 -34 22 -59 2 -32 -13 17 -13 16 -3
-13 7 -18 16 -33 20 -33 4 0 8 -5 8 -11 0 -14 81 -139 90 -139 6 0 40 -64 40
-76 0 -3 -4 -2 -10 1 -6 4 -6 -3 0 -21 6 -15 8 -29 5 -32 -3 -3 -5 -1 -5 4 0
5 -11 22 -25 38 -14 16 -25 32 -25 35 0 3 -10 18 -22 32 -13 13 -31 38 -40 54
-19 34 -41 46 -32 18 8 -24 -26 15 -67 76 -16 25 -29 41 -29 37 0 -4 -12 7
-27 25 -16 18 -27 36 -26 40 1 4 -4 9 -11 12 -11 5 -12 0 -6 -23 5 -16 11 -33
14 -38 3 -5 -6 -14 -19 -20 -14 -7 -25 -8 -25 -3 0 5 -7 11 -15 14 -12 5 -12
2 -3 -18 6 -14 15 -25 21 -25 5 0 7 -7 3 -15 -5 -14 27 -61 68 -97 10 -10 15
-18 9 -18 -5 0 -38 27 -73 60 -35 33 -67 60 -72 60 -13 0 -9 -20 6 -26 7 -3
16 -23 20 -44 3 -21 9 -40 13 -42 5 -1 19 -27 33 -57 14 -30 40 -72 58 -94 17
-21 30 -43 27 -48 -3 -4 6 -26 20 -49 14 -22 23 -40 20 -40 -3 0 6 -18 20 -40
14 -22 25 -44 25 -50 0 -6 11 -22 24 -35 13 -13 27 -39 31 -57 4 -18 11 -38
17 -44 8 -11 6 -80 -4 -89 -3 -3 -5 7 -5 23 -1 39 -32 103 -62 128 -8 6 -11
16 -7 22 5 8 1 10 -9 6 -13 -5 -15 -2 -9 20 4 16 2 26 -5 26 -6 0 -11 -10 -12
-22 0 -13 -3 -17 -6 -10 -3 7 -16 17 -29 22 -13 5 -24 14 -24 20 0 14 17 13
22 -1 2 -7 8 -6 16 4 10 12 8 19 -9 38 l-21 24 16 -27 c19 -32 8 -37 -18 -9
-13 14 -14 24 -7 45 6 15 7 26 1 26 -5 0 -12 9 -15 21 -4 12 -13 18 -20 15 -9
-3 -16 4 -20 17 -8 27 -22 63 -41 100 -16 32 -19 60 -4 37 8 -13 10 -13 10 1
0 20 -26 43 -39 35 -5 -4 -15 2 -21 11 -13 21 -14 22 27 -86 17 -46 20 -61 9
-52 -13 11 -14 9 -6 -16 22 -73 62 -187 71 -204 7 -14 6 -19 -3 -19 -10 0 -10
-2 1 -9 9 -6 10 -11 2 -15 -17 -11 -13 -26 5 -19 13 5 15 2 9 -15 -3 -12 -2
-22 3 -22 5 0 12 -8 16 -17 3 -10 8 -23 12 -29 3 -7 -7 -17 -23 -22 -17 -7
-21 -11 -10 -11 9 -1 17 -8 17 -16 0 -8 5 -15 10 -15 6 0 10 -7 10 -16 0 -8
-5 -12 -11 -8 -8 4 -8 1 -1 -12 5 -11 7 -26 4 -34 -2 -8 -1 -12 4 -7 4 4 13
-5 20 -20 7 -16 13 -21 13 -13 0 8 -6 26 -14 40 -17 29 -18 40 -6 40 12 0 33
-81 35 -133 1 -28 5 -43 12 -40 21 8 23 -25 3 -43 -12 -11 -19 -13 -19 -5 0 7
-4 10 -10 6 -5 -3 -7 -11 -4 -18 2 -7 -5 -18 -16 -25 -16 -10 -20 -10 -20 1 0
14 -37 87 -52 102 -7 7 -9 -1 -4 -25 5 -30 4 -32 -6 -15 -7 11 -13 38 -14 60
-1 22 -7 41 -13 43 -6 2 -11 10 -11 17 0 17 -37 62 -45 54 -3 -4 0 -13 8 -21
13 -13 19 -27 46 -113 5 -16 12 -37 15 -45 5 -11 0 -16 -14 -17 -21 -2 -27 11
-11 22 6 3 4 16 -4 31 -7 15 -11 33 -8 40 5 13 -7 18 -34 15 -7 -1 -13 7 -13
18 0 30 -21 71 -37 71 -7 0 -13 7 -13 15 0 8 -4 15 -10 15 -17 0 26 -93 63
-134 9 -11 17 -25 17 -32 0 -7 5 -14 12 -16 7 -3 13 -21 14 -42 0 -21 7 -41
14 -46 7 -4 9 -13 5 -20 -9 -15 -45 36 -45 63 0 10 -4 16 -9 13 -5 -3 -28 33
-52 79 -28 56 -45 81 -51 73 -5 -9 -8 -8 -8 5 0 9 -4 17 -9 17 -5 0 -13 15
-16 33 -9 38 -44 108 -68 131 -9 10 -17 26 -17 37 0 26 -16 24 -24 -3 -4 -15
2 -33 15 -51 11 -16 22 -38 23 -50 4 -24 17 -57 77 -187 63 -135 66 -143 80
-190 7 -25 22 -60 33 -78 14 -25 16 -36 7 -45 -8 -8 -11 -6 -11 7 0 10 -11 39
-24 65 -13 25 -39 79 -58 119 -19 39 -38 69 -41 65 -4 -3 -7 0 -7 7 0 7 -2 11
-5 8 -3 -3 17 -50 44 -104 98 -195 94 -184 77 -203 -9 -10 -16 -23 -16 -30 0
-7 -5 -9 -11 -6 -6 4 -8 13 -5 21 7 17 -5 18 -28 1 -15 -11 -16 -17 -5 -39 10
-23 9 -32 -7 -55 l-18 -28 -9 37 c-5 20 -18 45 -29 55 -21 18 -21 18 -14 -2
21 -54 24 -74 11 -85 -9 -7 -16 -6 -26 7 -12 15 -12 16 4 10 14 -5 18 -3 15
11 -2 9 -8 17 -15 17 -18 0 -26 12 -28 42 -2 16 -10 46 -18 68 -9 22 -16 52
-17 68 0 17 -5 27 -14 27 -19 0 -26 12 -30 52 -5 41 -45 138 -58 138 -6 0 -8
7 -4 15 3 8 1 15 -4 15 -14 0 -12 -12 5 -53 8 -20 15 -48 15 -62 0 -14 5 -25
11 -25 5 0 8 -4 4 -9 -3 -5 0 -13 6 -16 5 -4 8 -13 5 -21 -3 -7 -1 -16 4 -19
15 -9 12 -25 -5 -25 -8 0 -18 12 -21 28 -4 15 -19 52 -34 82 -15 30 -33 72
-39 93 -7 20 -17 37 -22 37 -5 0 -9 9 -9 20 0 20 -14 27 -24 12 -2 -4 9 -36
25 -70 16 -35 29 -67 29 -73 0 -5 5 -9 10 -9 6 0 10 -8 10 -19 0 -10 9 -30 20
-44 11 -14 20 -30 20 -36 0 -6 11 -21 24 -32 16 -14 26 -37 31 -67 4 -26 10
-51 13 -57 4 -5 7 -24 9 -41 1 -17 18 -65 37 -107 39 -83 42 -92 24 -103 -7
-5 -9 -2 -5 9 3 8 0 21 -8 27 -7 6 -16 22 -19 36 -4 14 -10 22 -15 20 -5 -3
-9 0 -8 7 1 36 -4 57 -13 52 -10 -6 -14 6 -10 39 1 11 -3 15 -9 12 -6 -4 -11
-1 -11 7 0 8 -7 20 -15 27 -8 7 -15 9 -15 4 0 -22 42 -140 55 -154 7 -8 16
-36 20 -62 6 -40 5 -48 -9 -48 -8 0 -18 -11 -22 -25 -3 -14 -10 -25 -15 -25
-15 0 -10 32 6 44 23 16 32 86 14 100 -25 19 -49 59 -49 83 0 13 -4 23 -10 23
-5 0 -10 -4 -10 -10 0 -5 -7 -7 -15 -4 -8 3 -13 11 -12 17 1 5 -9 14 -23 18
-14 4 -18 7 -9 8 15 1 15 5 4 38 -7 21 -18 39 -24 41 -12 4 -45 56 -60 95 -7
18 -7 26 -1 22 6 -3 10 -1 10 4 0 12 -23 15 -32 5 -6 -6 52 -145 65 -155 4 -3
5 -14 1 -24 -5 -13 -4 -16 4 -11 8 5 12 -2 12 -21 0 -16 13 -53 28 -83 30 -57
49 -140 33 -140 -5 0 -12 12 -16 27 -3 15 -10 30 -15 33 -4 3 -22 35 -39 73
-17 37 -34 67 -37 67 -6 0 2 -58 13 -88 4 -12 3 -14 -4 -7 -6 6 -18 34 -28 63
-9 29 -21 49 -27 46 -5 -3 -20 4 -34 17 -33 31 -40 18 -16 -31 11 -23 17 -39
13 -37 -3 1 -24 11 -46 21 -55 25 -91 58 -87 79 2 10 -3 17 -12 17 -9 0 -16 5
-16 10 0 6 -12 10 -27 9 -28 0 -28 0 -5 -11 12 -6 25 -23 29 -37 3 -14 14 -36
24 -49 27 -35 80 -169 73 -186 -4 -12 0 -16 15 -16 12 0 21 -4 21 -9 0 -5 -10
-7 -22 -4 -23 6 -23 6 1 -14 14 -11 21 -25 17 -32 -4 -6 -11 -9 -16 -6 -20 13
5 -38 26 -52 13 -8 24 -23 24 -33 0 -10 4 -20 8 -22 13 -5 24 -58 12 -58 -5 0
-10 5 -10 11 0 5 -4 7 -10 4 -5 -3 -10 -17 -10 -30 0 -13 -5 -27 -12 -31 -8
-5 -9 -2 -5 9 4 11 1 17 -9 17 -12 0 -14 -7 -10 -27 6 -27 5 -28 -37 -31 -36
-2 -47 2 -75 29 -18 17 -34 41 -37 53 -11 55 -14 106 -9 121 6 14 9 14 26 -5
28 -30 34 -18 9 17 -12 16 -25 58 -31 98 -9 59 -76 247 -110 307 -6 11 -5 18
3 21 13 4 47 -44 47 -67 0 -17 38 -108 48 -116 4 -3 18 -36 31 -75 14 -38 33
-86 43 -105 10 -19 18 -40 18 -47 0 -14 16 -18 23 -5 2 4 2 1 0 -6 -4 -16 14
-52 26 -52 4 0 7 12 5 28 -3 36 -38 170 -47 179 -4 3 -7 17 -7 30 0 12 -4 23
-10 23 -5 0 -10 9 -10 20 0 11 -4 20 -10 20 -5 0 -7 7 -3 16 3 9 -3 21 -16 31
-12 8 -20 21 -17 29 3 8 1 14 -5 14 -13 0 -2 -52 13 -61 7 -4 7 -9 0 -13 -17
-10 -35 22 -30 55 4 27 -1 37 -40 72 -58 54 -165 112 -237 128 -41 9 -59 18
-65 33 -7 17 -9 18 -9 4 -1 -24 -22 -23 -28 2 -3 11 -9 20 -13 20 -5 0 -3 -14
3 -30 6 -17 17 -28 23 -26 7 3 14 -3 17 -12 3 -9 8 -26 12 -37 3 -11 -1 -8
-10 8 -8 15 -22 27 -30 27 -7 0 -15 10 -17 23 -2 12 -10 22 -18 22 -8 0 -25
10 -39 23 -33 30 -44 28 -28 -5 8 -16 22 -46 32 -68 9 -22 24 -53 32 -68 8
-16 12 -31 9 -34 -3 -3 -9 2 -13 12 -3 10 -22 41 -40 69 -18 28 -36 59 -39 70
-4 11 -18 30 -32 43 -28 26 -47 19 -55 -20 -4 -22 -4 -22 -6 1 0 12 -6 22 -12
22 -8 0 -10 -15 -6 -47 6 -44 5 -46 -8 -29 -14 19 -15 18 -15 -15 l-1 -34 -15
28 c-18 33 -24 35 -17 5 l6 -23 -26 24 c-14 13 -29 36 -32 52 -4 16 -10 27
-15 24 -9 -6 38 -146 53 -156 5 -4 6 -16 2 -28 l-7 -22 -17 23 c-10 13 -21 30
-24 38 -4 8 -20 33 -36 55 -23 32 -27 43 -18 55 6 8 2 6 -11 -4 -12 -11 -22
-24 -22 -30 0 -6 4 -5 9 2 6 11 10 8 14 -10 4 -13 21 -45 38 -72 27 -40 30
-51 21 -67 -7 -10 -12 -33 -12 -51 0 -23 -3 -29 -9 -19 -5 8 -7 20 -4 28 9 23
-14 14 -90 -37 -74 -50 -97 -59 -97 -40 0 6 5 10 10 10 6 0 10 5 10 11 0 5 -4
8 -9 5 -5 -3 -8 2 -7 11 0 9 -4 17 -9 20 -7 2 -9 -12 -7 -36 2 -21 2 -47 0
-57 -7 -29 -30 30 -36 91 -2 28 -9 53 -16 57 -8 6 -7 8 2 8 15 0 16 46 1 56
-7 4 -7 9 -1 13 5 3 6 15 1 26 -7 17 -8 18 -8 2 -1 -11 -12 -20 -30 -23 -21
-4 -31 -14 -36 -31 -3 -14 -4 -27 -1 -30 10 -10 46 19 46 38 0 24 16 17 23
-11 3 -11 1 -18 -4 -14 -5 3 -9 -4 -9 -15 0 -11 4 -22 9 -25 5 -3 4 -29 -1
-58 -7 -38 -7 -53 2 -56 8 -3 8 -8 -1 -18 -16 -19 -4 -30 16 -14 12 10 15 10
15 -1 -1 -17 -68 -61 -75 -49 -3 4 2 10 10 14 8 3 15 10 15 15 0 6 -7 8 -15 5
-21 -9 -19 9 4 23 21 13 18 63 -5 63 -8 0 -14 7 -14 16 0 14 3 14 15 4 13 -11
15 -8 15 18 0 25 -3 30 -17 26 -15 -5 -15 -3 1 10 19 16 19 16 -2 16 -20 0
-22 -5 -22 -55 0 -44 3 -53 15 -49 8 4 15 2 15 -4 0 -5 -8 -12 -18 -14 -16 -4
-18 -14 -17 -62 2 -53 0 -58 -29 -78 -17 -12 -49 -37 -70 -55 -22 -18 -42 -31
-44 -28 -3 2 6 13 19 24 13 11 19 20 13 21 -8 0 -10 17 -7 50 3 27 0 73 -6
102 -7 31 -8 54 -2 57 5 4 5 23 1 46 -4 22 -9 36 -10 30 -1 -5 -5 -1 -10 10
-5 12 -9 -56 -9 -172 l-1 -193 -25 -16 c-14 -9 -34 -14 -45 -11 -11 3 -22 2
-25 -3 -10 -16 -45 -19 -45 -3 0 8 5 11 10 8 6 -3 10 1 10 9 0 23 -21 20 -27
-4 -3 -11 -9 -17 -14 -15 -4 3 -25 -2 -46 -10 -21 -9 -60 -15 -88 -14 -119 4
-132 1 -145 -32 -11 -25 -15 -28 -22 -15 -5 9 -8 22 -6 30 2 8 0 15 -4 15 -33
3 -47 -1 -51 -16 -3 -13 -5 -11 -6 6 0 13 -4 21 -8 18 -3 -4 -17 0 -29 8 -35
23 -69 14 -69 -18 -1 -25 -15 -53 -15 -28 0 12 -49 60 -62 61 -4 0 -4 -8 -1
-17 6 -15 4 -16 -9 -5 -25 20 -116 24 -127 5 -6 -11 -10 -12 -15 -4 -4 6 -16
11 -27 11 -21 0 -26 15 -8 26 6 3 8 15 6 26 -4 14 0 22 14 25 10 3 19 10 19
15 0 5 -6 8 -12 6 -7 -3 -18 1 -25 8 -15 14 -17 28 -4 20 5 -3 9 39 10 95 1
66 -2 98 -8 94 -6 -3 -3 8 7 24 14 25 15 34 5 51 -7 11 -13 25 -13 32 0 9 3 8
10 -2 5 -8 10 -10 11 -5 0 6 5 -1 9 -15 5 -17 8 3 9 62 1 48 -3 90 -9 93 -6 3
-10 15 -10 26 0 11 4 17 10 14 6 -3 10 4 10 17 0 16 -3 19 -9 10 -7 -11 -10
-10 -15 3 -9 24 -8 28 9 21 12 -4 15 6 15 64 0 39 -3 69 -7 69 -5 -1 -10 -1
-13 1 -24 9 -55 8 -67 -2 -11 -9 -16 -9 -24 3 -5 8 -9 20 -9 27 0 24 -26 11
-28 -15 -1 -14 1 -24 4 -21 3 3 17 0 31 -7 15 -8 30 -12 35 -9 4 3 8 -2 8 -11
0 -11 5 -15 15 -11 13 4 15 -10 15 -95 0 -64 -4 -98 -10 -94 -6 4 -10 -11 -10
-38 0 -36 -4 -46 -20 -50 -20 -5 -20 -6 -3 -41 11 -25 19 -32 25 -24 5 8 8 -1
8 -22 0 -26 -3 -31 -10 -20 -8 12 -10 11 -10 -7 0 -14 -6 -23 -15 -23 -9 0
-15 -10 -15 -26 0 -14 -4 -23 -10 -19 -5 3 -10 16 -10 28 0 18 -2 19 -10 7 -8
-13 -10 -13 -10 -1 0 12 -3 11 -13 -2 -7 -11 -27 -18 -50 -19 -36 -1 -37 -2
-39 -42 -2 -79 -8 -201 -10 -216 -1 -8 -12 -23 -25 -33 -13 -10 -23 -29 -23
-43 0 -13 -5 -24 -11 -24 -7 0 -9 10 -5 25 5 18 2 25 -9 25 -8 0 -15 7 -15 15
0 8 -3 15 -7 15 -5 0 -8 63 -8 140 0 77 -3 140 -7 140 -4 0 -8 7 -8 15 0 8 5
15 10 15 6 0 10 18 10 40 0 22 -4 40 -10 40 -5 0 -10 12 -10 26 0 14 -7 32
-15 40 -13 13 -12 17 3 32 16 17 17 16 23 -13 6 -27 6 -26 8 11 1 30 -4 44
-15 48 -23 9 -24 8 -24 -19 0 -16 -6 -25 -15 -25 -9 0 -15 9 -15 25 0 17 -4
23 -14 19 -10 -4 -14 -30 -15 -102 -1 -53 -4 -98 -6 -101 -5 -4 -10 122 -8
182 1 18 -4 27 -14 27 -12 0 -14 -8 -10 -32 3 -18 2 -42 -3 -53 -7 -19 -8 -19
-15 -1 -5 11 -3 21 5 26 11 7 10 12 -3 25 -10 9 -17 24 -17 33 0 14 -2 14 -9
3 -7 -11 -9 -11 -14 0 -3 8 -6 1 -6 -14 -1 -31 -21 -28 -21 4 0 10 -4 19 -9
19 -4 0 -8 -44 -7 -97 0 -54 0 -180 -1 -281 l-3 -182 -36 -17 c-28 -14 -39
-15 -54 -5 -25 15 -25 15 -46 -5 -15 -16 -17 -16 -30 2 -12 17 -14 17 -20 1
-4 -9 -13 -15 -20 -12 -8 3 -14 -1 -14 -8 0 -21 -50 -27 -51 -7 0 9 -5 4 -11
-11 -11 -32 -38 -38 -38 -8 0 11 -4 20 -10 20 -5 0 -10 -11 -10 -24 0 -24 -34
-43 -46 -25 -3 5 -9 7 -14 4 -5 -3 -11 7 -13 22 l-4 28 -2 -28 c-1 -25 -3 -27
-21 -17 -12 6 -29 8 -40 5 -10 -3 -21 -2 -24 3 -6 9 -53 10 -72 1 -5 -3 -25
-4 -44 -4 -19 0 -42 -6 -51 -15 -10 -8 -24 -21 -33 -28 -8 -6 -13 -19 -9 -27
4 -13 -3 -16 -33 -15 -22 1 -46 0 -54 0 -8 -1 -33 0 -55 1 -22 0 -42 0 -45 0
-9 -2 -155 -12 -170 -11 -39 1 -63 0 -71 -6 -21 -12 -118 -11 -123 2 -3 7 -20
14 -38 16 -20 2 -34 9 -34 18 -1 8 -2 21 -3 28 -2 23 -20 12 -23 -15 -2 -20
-9 -28 -23 -28 -11 0 -28 -8 -37 -19 -15 -16 -18 -17 -24 -3 -4 10 -16 14 -37
12 -18 -2 -33 -4 -34 -5 -2 -2 -7 -3 -12 -4 -5 0 -12 -4 -15 -7 -4 -3 -18 -4
-31 -1 -20 3 -24 9 -19 28 5 18 2 24 -11 24 -11 0 -15 -5 -11 -15 7 -20 -4
-19 -20 2 -7 10 -16 15 -20 11 -4 -4 -1 -14 5 -22 9 -11 9 -16 0 -21 -12 -8
-29 11 -29 33 0 8 -6 12 -12 10 -7 -3 -13 -11 -13 -18 0 -7 -6 -15 -12 -17 -8
-3 -13 4 -13 16 0 12 -4 21 -10 21 -5 0 -10 -9 -10 -21 0 -12 -5 -19 -12 -16
-7 2 -12 11 -10 21 2 9 -2 16 -8 16 -5 0 -10 -5 -10 -11 0 -7 -27 -10 -77 -9
-43 1 -100 2 -126 1 l-48 -1 2 -247 c1 -150 5 -253 11 -260 7 -9 7 -13 -1 -13
-6 0 -11 -13 -11 -29 0 -25 3 -28 23 -24 l22 5 -22 -20 c-17 -15 -23 -31 -23
-60 l0 -40 39 5 c23 3 41 1 45 -6 5 -7 -7 -11 -38 -11 l-46 0 0 -50 c0 -41 3
-50 18 -50 16 -1 16 -1 -1 -14 -15 -12 -17 -32 -17 -159 0 -145 0 -146 26
-166 25 -20 21 -26 -14 -22 -10 2 -12 -34 -11 -163 l1 -166 26 6 c15 3 32 7
38 9 6 2 17 -1 25 -6 12 -8 12 -10 -1 -19 -8 -5 -26 -10 -40 -10 -40 0 -47
-11 -49 -82 l-2 -68 28 -1 28 -1 -28 -11 c-15 -6 -27 -15 -27 -20 0 -13 74 0
78 13 2 5 10 10 18 10 9 0 12 -5 8 -11 -5 -8 13 -9 62 -5 37 4 65 4 63 1 -6
-6 -105 -27 -136 -29 -24 -1 -57 -26 -35 -26 7 0 12 6 12 13 0 8 3 8 8 1 8
-11 74 -11 161 1 39 6 52 5 47 -4 -4 -6 -22 -11 -39 -11 -22 0 -28 -3 -18 -9
7 -5 31 -6 52 -4 43 6 53 -9 21 -33 -16 -13 -16 -15 1 -28 18 -14 83 -12 102
4 5 4 54 12 108 16 53 4 97 10 97 14 0 4 -54 8 -121 9 -98 1 -124 4 -137 18
-16 15 -15 16 8 10 30 -7 122 -8 240 -2 47 3 100 5 118 5 46 0 37 25 -10 26
-19 0 -40 4 -46 8 -7 4 -28 2 -48 -4 -29 -10 -43 -9 -84 6 -39 14 -47 20 -38
31 6 8 19 11 31 7 11 -3 25 -7 31 -8 6 -1 16 -4 21 -7 6 -4 52 -6 103 -5 52 0
99 -2 105 -6 8 -5 6 -8 -5 -8 -22 0 -23 -14 -2 -34 9 -9 33 -16 57 -16 l42 -1
-34 -14 c-18 -8 -37 -12 -42 -9 -5 3 -6 -2 -2 -12 4 -12 14 -15 40 -11 42 7
93 29 93 40 0 5 31 7 68 6 38 -1 74 1 80 5 6 3 72 8 146 11 134 4 192 15 154
30 -10 4 -25 4 -34 1 -8 -3 -28 1 -44 9 -38 20 -334 27 -318 8 12 -15 -10 -16
-82 -4 l-45 7 35 8 c19 5 41 13 48 19 7 5 15 7 19 4 3 -4 12 -2 19 4 9 7 19 7
33 0 25 -14 151 -14 151 -1 0 6 8 10 18 10 10 0 23 5 30 12 6 6 15 8 19 4 4
-4 1 -11 -6 -15 -9 -6 0 -11 28 -16 48 -8 60 -2 41 20 -10 13 -9 15 9 15 11 0
21 5 21 10 0 6 10 10 23 9 18 0 19 -2 5 -7 -23 -9 149 -6 186 3 19 5 31 4 36
-6 7 -10 18 -11 60 -1 62 14 80 15 80 3 0 -5 -17 -14 -38 -19 -33 -9 -28 -10
41 -9 42 1 77 5 77 9 0 15 34 8 54 -11 28 -25 91 -34 106 -16 10 12 5 14 -27
12 -43 -2 -58 16 -16 21 15 2 32 11 39 19 7 11 17 14 30 9 18 -8 18 -8 -1 -16
-19 -7 -18 -8 7 -20 20 -9 31 -10 40 -2 20 16 65 3 71 -20 5 -16 10 -19 24
-12 10 4 46 10 80 12 35 2 63 8 63 13 0 5 -9 9 -19 9 -11 0 -22 6 -25 13 -5 9
-7 9 -12 0 -9 -21 -95 -16 -129 7 l-30 20 80 -5 c44 -4 110 -6 147 -7 38 0 71
-4 74 -9 3 -6 11 -4 17 5 7 9 28 19 47 22 33 6 34 5 16 -9 -18 -13 -15 -14 37
-5 67 12 82 4 92 -48 3 -20 8 -41 11 -47 3 -8 -12 -12 -46 -13 -48 -1 -69 -8
-58 -19 2 -3 31 -6 64 -7 55 -3 59 -5 59 -27 0 -25 11 -22 -265 -84 -30 -7
-54 -17 -53 -22 3 -14 96 -24 110 -13 8 7 29 6 60 -1 46 -11 105 -14 168 -9
21 2 30 -1 30 -11 0 -19 -88 -50 -142 -51 -23 0 -45 -5 -49 -11 -3 -6 -18 -9
-33 -6 -14 3 -44 -1 -66 -8 -22 -7 -75 -15 -117 -18 -85 -6 -110 -14 -85 -28
8 -5 38 -5 67 1 75 14 90 13 66 -5 -19 -14 -19 -15 7 -15 15 0 42 6 60 13 18
8 49 17 70 21 21 4 40 13 43 21 4 9 30 16 72 20 37 4 79 10 93 15 25 8 26 6
42 -59 8 -36 18 -76 22 -87 6 -21 5 -21 -42 -13 -26 5 -55 12 -63 15 -27 11
-63 12 -160 2 -52 -5 -96 -14 -98 -19 -2 -5 -12 -9 -22 -9 -9 0 -24 -7 -31
-16 -12 -15 -31 -16 -151 -10 -98 5 -144 3 -160 -5 -21 -11 -21 -12 -3 -25 10
-8 31 -14 47 -14 15 0 28 -4 28 -10 0 -13 -8 -13 -61 3 -24 8 -51 12 -59 10
-43 -12 -44 -16 -10 -28 l35 -13 -47 -1 c-85 -2 -52 -21 35 -21 56 0 77 -3 67
-10 -11 -7 -8 -10 15 -9 17 0 24 3 18 6 -27 10 15 33 59 32 l43 -1 -35 -11
c-23 -7 -29 -12 -18 -14 9 -2 26 1 38 7 12 6 35 8 52 5 21 -5 28 -4 24 4 -4 6
-18 11 -32 11 -16 0 -23 4 -18 11 4 7 21 9 48 4 89 -17 223 3 285 42 18 12 37
14 75 8 79 -11 131 -11 129 0 -4 22 35 13 46 -11 10 -23 -1 -35 -14 -14 -4 7
-12 7 -18 2 -11 -8 -86 -32 -101 -32 -4 0 -11 12 -16 26 -6 14 -15 22 -21 19
-6 -4 -8 -13 -5 -21 7 -18 -20 -30 -37 -16 -9 8 -27 6 -62 -5 -80 -24 -83 -25
-63 -30 16 -4 56 5 103 22 20 8 20 8 0 -8 -20 -15 -20 -15 5 -21 14 -3 52 -8
84 -11 33 -4 66 -13 73 -21 8 -8 30 -14 48 -14 19 0 36 -4 40 -9 12 -21 -17
-21 -77 0 -38 12 -77 19 -98 16 -19 -2 -62 -1 -95 4 -179 25 -373 19 -530 -16
-33 -8 -103 -17 -155 -20 -52 -4 -110 -13 -127 -21 -18 -8 -63 -17 -100 -19
-60 -4 -64 -3 -33 6 66 20 100 39 100 55 0 11 5 14 17 9 21 -9 27 -9 73 -5 29
2 24 4 -25 11 -74 11 -88 16 -80 29 3 5 32 10 63 10 41 0 53 3 42 10 -8 5 -11
10 -5 10 5 0 4 5 -2 11 -12 12 -77 17 -233 19 -57 1 -87 -4 -124 -20 -42 -19
-54 -20 -91 -11 -64 16 -151 14 -169 -4 -11 -12 -42 -15 -144 -15 -126 0 -222
-18 -222 -41 0 -5 23 -9 51 -9 28 0 60 -5 71 -11 26 -14 217 6 263 27 35 16
114 20 310 16 129 -2 138 -4 120 -18 -14 -11 -34 -14 -71 -11 -76 8 -87 -9
-12 -18 l63 -8 -63 -8 c-35 -4 -70 -13 -78 -19 -8 -7 -38 -10 -74 -8 -37 2
-63 -1 -68 -8 -7 -12 -242 -45 -347 -50 -58 -2 -59 -2 -22 9 59 17 44 30 -30
24 -101 -8 -198 -25 -293 -51 -47 -13 -114 -27 -150 -30 -61 -6 -63 -5 -35 8
l30 14 -30 1 c-42 1 -109 -16 -113 -28 -2 -6 -12 -11 -23 -11 -10 0 -19 -4
-19 -9 0 -9 156 -6 198 4 15 4 21 2 17 -5 -4 -7 18 -10 70 -9 42 1 81 -3 87
-9 14 -14 -76 -22 -287 -25 -149 -2 -170 -4 -173 -18 -2 -13 8 -18 47 -24 28
-4 53 -11 57 -16 3 -5 17 -9 32 -10 15 0 22 -3 15 -5 -6 -3 -51 2 -100 10 -48
9 -105 16 -125 16 l-38 0 0 -330 c0 -324 0 -330 19 -320 24 12 31 13 31 1 0
-5 -11 -12 -25 -15 -24 -6 -25 -8 -25 -101 l0 -95 38 -1 c65 -1 197 -10 201
-15 2 -2 1 -7 -3 -11 -8 -9 -191 -6 -218 3 -17 5 -18 -5 -18 -115 0 -88 3
-121 12 -121 9 0 9 -3 0 -12 -15 -15 -16 -98 -2 -98 6 0 18 5 28 11 14 9 25 8
48 -4 l29 -15 -37 0 c-61 0 -78 -10 -78 -45 l0 -32 58 3 c38 2 70 -2 93 -12
l34 -16 -50 6 c-27 3 -52 6 -55 7 -3 1 -22 -2 -42 -6 -40 -8 -50 -31 -26 -55
9 -9 9 -12 0 -12 -7 0 -12 -13 -12 -29 0 -27 3 -29 42 -33 23 -2 60 -1 82 2
23 3 48 3 56 -2 8 -4 36 -10 63 -13 26 -3 47 -10 47 -16 0 -12 100 -12 119 0
12 8 9 11 -12 17 -53 13 -19 15 49 3 77 -14 168 -18 449 -22 221 -2 305 1 305
14 0 5 -7 9 -15 9 -18 0 -20 16 -4 26 6 3 15 1 19 -7 6 -9 34 -13 100 -12 51
1 90 -1 87 -3 -2 -2 -24 -11 -48 -18 -43 -14 -42 -14 71 -15 83 0 110 2 98 10
-33 19 -18 28 33 22 35 -4 53 -2 59 6 13 21 148 42 226 35 71 -7 104 -17 92
-29 -3 -4 -23 -2 -44 4 -39 11 -114 5 -114 -9 0 -5 -32 -8 -71 -8 -70 0 -89
-5 -75 -19 4 -5 1299 -9 2877 -11 l2869 -2 0 2522 c0 2501 0 2523 -20 2553
-25 38 -25 44 0 38 19 -5 20 0 20 74 0 84 -9 102 -67 132 -28 14 -33 14 -33
-4 0 -18 -17 -20 -22 -3 -2 6 -21 11 -43 10 -31 -1 -51 7 -104 46 l-66 47
-103 0 c-56 0 -102 3 -102 8 0 8 31 11 70 8 l24 -2 -19 23 c-11 13 -23 25 -26
28 -3 3 -36 52 -74 110 -75 114 -184 260 -194 260 -3 0 -14 20 -24 45 -12 28
-25 45 -35 45 -15 0 -15 2 -2 10 11 6 22 1 42 -23 15 -18 27 -36 28 -41 0 -7
18 -32 80 -110 42 -53 59 -70 60 -58 0 6 -4 12 -10 12 -5 0 -10 8 -10 18 1 15
2 15 15 -2 8 -11 13 -27 10 -36 -5 -17 33 -76 43 -66 2 3 -1 12 -8 21 -8 10
-9 15 -2 15 7 0 16 -15 21 -32 8 -29 9 -30 10 -8 2 38 21 10 23 -34 1 -28 5
-36 16 -31 10 3 12 0 9 -10 -4 -8 -2 -17 4 -20 5 -4 7 -11 3 -16 -3 -5 -1 -8
3 -7 11 4 88 -74 85 -85 -2 -5 2 -6 8 -2 17 10 12 21 -27 61 -21 20 -37 41
-36 46 2 4 -10 29 -26 55 -16 27 -33 60 -36 76 -4 15 -12 27 -17 27 -6 0 -7
-7 -4 -16 3 -8 2 -12 -4 -9 -6 3 -7 18 -4 32 6 21 4 25 -9 20 -12 -4 -19 3
-27 28 -6 18 -18 36 -26 39 -8 3 -19 16 -25 30 -9 20 -8 27 11 46 21 21 21 23
4 41 -9 10 -21 16 -25 13 -5 -3 -6 2 -3 10 3 9 -5 21 -21 32 -14 9 -24 23 -21
30 3 8 -1 14 -9 14 -15 0 -17 5 -19 45 -1 11 -10 21 -21 23 -25 5 -36 22 -29
44 7 25 -6 44 -18 27 -7 -10 -8 -8 -4 7 4 13 -1 28 -14 42 -11 11 -20 26 -20
32 0 5 -4 10 -8 10 -5 0 -21 18 -38 40 -16 22 -34 38 -41 35 -7 -2 -10 2 -7 9
5 14 -9 32 -110 136 -94 97 -167 160 -178 154 -5 -3 -16 0 -25 8 -11 9 -14 9
-9 1z m-3939 -2639 c8 3 17 1 20 -4 4 -6 23 -10 44 -10 29 0 40 5 49 23 l11
22 0 -22 c1 -31 19 -29 33 5 11 26 12 26 15 5 5 -27 18 -29 32 -5 10 16 10 16
11 0 0 -26 28 -22 33 5 l4 22 8 -22 c8 -26 35 -31 35 -8 0 8 5 15 11 15 8 0 9
-11 5 -32 l-6 -32 25 24 c13 12 22 26 20 31 -3 4 -1 10 4 13 5 4 12 -3 16 -14
8 -26 21 -25 30 3 l8 22 4 -22 c4 -23 23 -33 23 -12 0 5 5 7 10 4 6 -3 10 -1
10 6 0 7 6 4 14 -6 12 -16 16 -17 30 -6 13 11 16 11 16 -2 0 -26 28 -41 53
-30 29 14 65 15 89 2 25 -14 23 -24 -7 -25 -14 -1 -22 2 -19 8 4 6 -2 8 -15 4
-95 -27 -121 -29 -122 -9 -1 17 -2 17 -6 1 -6 -24 -23 -23 -23 2 0 11 -5 20
-10 20 -6 0 -8 -11 -4 -25 5 -21 3 -25 -15 -25 -12 0 -21 5 -21 11 0 6 -7 8
-16 5 -12 -5 -14 -1 -9 17 5 19 4 20 -5 5 -6 -10 -18 -18 -25 -18 -8 0 -15 8
-16 18 0 13 -2 14 -6 2 -10 -24 -25 -29 -42 -13 -13 14 -16 14 -22 -3 -7 -17
-8 -16 -8 5 -1 17 -5 22 -17 17 -9 -3 -19 -6 -24 -6 -4 0 -6 -10 -2 -22 3 -14
2 -19 -7 -14 -6 4 -9 11 -6 16 3 4 -2 13 -9 19 -9 7 -17 8 -20 2 -3 -5 -15 -7
-27 -4 -18 5 -19 2 -13 -23 4 -20 3 -26 -4 -19 -5 6 -12 19 -15 30 -4 20 -4
20 -13 -1 -7 -16 -14 -19 -29 -13 -17 6 -17 8 -2 8 9 1 17 6 17 12 0 6 -13 8
-34 5 -19 -3 -37 -2 -40 2 -3 5 -30 7 -61 4 -55 -4 -69 4 -42 27 10 7 17 7 24
0 15 -15 33 -3 34 24 2 21 2 21 6 -1 3 -15 10 -22 18 -18z m2458 -9 c15 -25
27 -51 27 -58 0 -7 11 -25 25 -41 14 -16 25 -35 25 -41 0 -7 7 -18 15 -25 18
-15 20 1 3 19 -11 11 -9 12 7 3 27 -14 71 -62 57 -62 -6 0 -17 7 -26 15 -29
29 -25 -2 6 -44 17 -23 28 -45 24 -48 -3 -3 -8 2 -12 11 -3 9 -9 14 -13 13 -3
-2 -17 8 -31 21 -14 14 -18 21 -10 17 13 -8 13 -6 2 7 -8 9 -19 15 -27 12 -7
-3 -20 4 -28 16 -9 12 -20 19 -26 15 -6 -3 -15 4 -20 18 -5 13 -16 27 -25 30
-16 6 -56 90 -55 116 0 10 2 11 6 4 6 -16 29 -17 39 -1 4 7 3 8 -4 4 -7 -4
-12 -1 -12 8 0 9 5 16 11 16 5 0 7 5 4 10 -3 6 -3 10 2 10 4 0 20 -20 36 -45z
m-2020 -194 c18 -7 27 -7 27 0 0 6 12 9 28 7 21 -2 27 -8 27 -28 0 -21 4 -25
27 -23 16 1 29 -5 32 -14 7 -17 -1 -33 -16 -33 -6 0 -17 -8 -24 -17 -13 -17
-14 -17 -8 0 5 12 1 17 -14 17 -16 0 -19 -5 -14 -22 4 -17 2 -20 -12 -15 -10
4 -22 7 -27 7 -5 0 -9 7 -9 15 0 8 5 15 10 15 6 0 10 4 10 9 0 4 -26 11 -59
15 -32 4 -67 14 -77 22 -18 14 -17 15 16 9 76 -14 130 -17 130 -7 0 14 -37 22
-107 22 -42 0 -66 5 -77 16 -9 8 -16 17 -16 18 0 8 128 -3 153 -13z m-203 -79
c0 -22 -27 -62 -42 -62 -10 0 -18 -4 -18 -10 0 -5 7 -10 15 -10 8 0 15 -9 15
-20 0 -16 4 -18 24 -10 20 7 116 14 165 11 7 -1 11 -7 7 -16 -3 -8 2 -19 12
-24 15 -9 15 -10 1 -11 -9 0 -19 3 -23 8 -4 4 -20 8 -34 9 -15 2 -48 5 -73 9
-39 5 -46 3 -46 -11 0 -14 7 -16 32 -12 18 3 37 2 41 -3 13 -12 131 -19 141
-9 6 6 22 3 42 -7 30 -15 31 -17 18 -38 -10 -14 -26 -22 -53 -24 -37 -2 -38
-1 -20 13 18 13 18 15 3 15 -10 0 -25 5 -36 11 -13 9 -23 9 -37 1 -18 -11 -18
-12 4 -18 32 -9 29 -36 -3 -28 -48 12 -24 -32 24 -46 29 -8 34 -7 38 10 3 13
14 20 29 20 l23 0 -31 -60 c-18 -33 -36 -60 -40 -60 -11 0 -10 14 2 28 6 6 7
10 3 7 -3 -3 -13 1 -22 9 -22 19 -61 23 -88 8 -16 -9 -40 -10 -90 -2 -73 10
-144 24 -180 35 -13 4 -23 3 -23 -2 0 -5 -20 -10 -45 -10 -30 0 -50 -5 -58
-16 -9 -12 -40 -18 -130 -24 -65 -5 -121 -5 -123 -1 -3 5 -22 8 -42 8 -28 0
-33 3 -24 12 7 7 53 12 126 13 119 1 151 8 95 19 -18 3 -40 13 -48 20 -9 8
-34 16 -55 18 -22 2 -41 9 -44 17 -3 10 7 12 44 11 70 -4 74 -2 74 20 0 14 7
20 21 20 11 0 17 5 14 10 -4 6 5 10 20 10 24 0 26 3 20 27 -5 23 -4 25 9 14
13 -11 16 -11 16 3 0 23 35 20 51 -4 13 -19 16 -19 43 -5 33 17 56 19 56 5 0
-16 28 -12 32 4 2 11 10 9 33 -9 29 -24 29 -24 10 -45 -24 -27 -14 -35 46 -36
36 -1 56 -7 73 -23 26 -24 81 -26 81 -3 0 7 7 17 15 22 12 8 10 10 -10 10 -14
0 -59 5 -101 11 l-75 11 4 29 c3 23 9 29 29 29 47 0 13 17 -47 24 -33 4 -60
12 -60 17 0 6 8 8 19 4 10 -3 29 -1 42 4 l24 9 -30 13 -30 14 53 3 c44 3 52 6
52 23 0 12 7 19 20 19 11 0 20 -4 20 -8z m-873 -306 c-5 -13 12 -15 101 -15
71 0 108 -3 110 -11 6 -18 52 -33 112 -37 30 -2 82 -8 115 -13 33 -5 71 -7 85
-3 21 5 23 3 13 -8 -7 -7 -13 -16 -13 -20 0 -12 53 -17 79 -8 26 10 20 23 -14
32 -11 3 0 5 25 5 25 -1 76 -1 114 0 59 2 67 4 56 17 -8 9 -21 13 -36 9 -13
-3 -36 -3 -51 2 -55 15 62 24 120 9 28 -7 54 -12 57 -10 16 10 160 14 160 5 0
-6 -15 -10 -34 -8 -42 2 -72 -18 -55 -38 9 -11 8 -14 -4 -14 -8 0 -20 7 -27
15 -14 16 -40 20 -40 6 0 -11 -39 -21 -45 -12 -4 8 -223 -28 -255 -42 -27 -11
-154 -14 -211 -6 -32 5 -77 5 -105 0 -27 -5 -51 -7 -54 -4 -11 11 36 32 74 33
35 0 61 2 99 9 4 0 7 6 7 12 0 6 -22 9 -56 8 -31 -1 -59 2 -62 7 -19 27 -109
41 -256 38 -82 -1 -152 -7 -155 -12 -11 -17 -60 -23 -81 -10 -17 11 -22 10
-30 -2 -9 -13 -10 -13 -10 1 0 9 -11 22 -25 29 -14 7 -25 17 -25 22 0 14 19 9
40 -12 13 -13 32 -20 58 -19 33 1 34 2 12 9 -28 9 -22 10 66 16 34 2 74 10 90
19 37 19 58 19 51 1z m-445 -75 c10 0 15 -7 12 -14 -3 -10 6 -12 40 -10 24 2
47 -1 50 -5 9 -15 -96 -32 -137 -22 -43 9 -250 4 -400 -11 -60 -6 -116 -7
-125 -3 -27 11 54 24 113 17 35 -4 47 -2 40 5 -5 6 -21 12 -35 14 -14 2 -34 9
-45 16 -17 11 -14 12 25 7 96 -12 114 -12 143 -4 21 6 35 5 45 -3 9 -8 54 -13
113 -14 89 -2 99 0 99 16 0 12 7 17 23 15 12 -1 30 -3 39 -4z m1447 -81 c-12
-22 -25 -40 -30 -40 -5 0 -9 -9 -9 -19 0 -11 -6 -26 -13 -33 -8 -7 -19 -24
-26 -36 -11 -21 -14 -21 -34 -7 -28 20 -54 21 -38 1 16 -19 1 -27 -46 -26 -73
1 -129 -19 -90 -33 6 -2 9 -8 4 -13 -4 -4 -24 -2 -43 5 -49 18 -191 24 -249
11 -41 -9 -49 -8 -61 7 -22 29 -16 35 31 27 28 -4 45 -2 45 4 0 12 88 13 112
1 11 -6 18 -5 21 4 3 9 7 9 18 1 8 -6 28 -10 44 -9 17 1 36 -3 43 -8 9 -7 17
-6 24 1 7 7 21 12 33 12 32 1 53 22 44 45 -4 11 -8 14 -8 6 -1 -16 -59 -8
-104 15 -26 14 -33 42 -9 37 6 -2 9 4 6 12 -4 8 -10 15 -15 15 -5 0 -9 5 -9
10 0 6 12 10 26 10 14 0 23 -4 19 -10 -3 -5 1 -10 9 -10 19 0 20 -5 6 -30 -9
-16 -4 -19 40 -25 28 -4 78 -4 112 0 59 7 62 6 48 -10 -13 -15 -12 -17 5 -14
10 2 17 8 16 12 -1 5 6 15 16 22 15 12 16 17 5 34 -11 18 -10 21 7 21 10 0 29
11 42 25 13 13 25 25 26 25 2 0 -7 -18 -18 -40z m-584 -40 c-4 -6 11 -10 36
-10 34 0 40 -2 30 -12 -9 -10 -61 -13 -189 -13 -190 -1 -359 -13 -368 -27 -9
-13 -51 -9 -64 7 -7 8 -26 15 -42 15 -16 0 -27 4 -24 8 3 5 76 12 163 16 284
12 388 18 392 22 10 9 72 3 66 -6z m-20 -87 c-33 -5 -75 -39 -75 -60 0 -7 -8
-13 -17 -13 -9 0 -24 -7 -34 -16 -14 -12 -22 -13 -39 -4 -11 6 -53 10 -93 9
-40 -1 -91 3 -114 9 -40 11 -102 7 -187 -14 -19 -4 -27 -3 -23 3 9 15 -13 31
-47 35 -16 1 -31 8 -33 14 -5 17 76 23 160 13 179 -22 200 -22 248 -1 49 21
136 20 152 -2 5 -6 6 -3 3 9 -5 18 0 20 62 21 37 1 54 -1 37 -3z m-1372 -40
c-16 -6 -17 -33 -2 -33 6 0 19 5 30 10 13 7 19 7 19 0 0 -5 12 -10 26 -10 22
0 25 -2 14 -15 -10 -12 -10 -15 1 -16 8 -1 32 -3 54 -5 22 -2 50 -2 63 1 38 9
14 25 -41 27 l-52 1 45 5 c25 2 70 -2 100 -8 51 -12 53 -13 30 -23 l-25 -11
27 -3 c14 -2 29 -11 32 -19 4 -11 -8 -14 -67 -14 -78 1 -255 34 -222 42 20 5
20 5 1 13 -13 6 -21 4 -24 -3 -5 -16 -33 -15 -55 2 -16 13 -16 14 4 19 13 4
18 10 14 17 -8 12 11 30 30 29 6 0 4 -3 -2 -6z m1832 -85 c-4 -13 -11 -27 -16
-32 -5 -6 -9 -23 -9 -38 0 -31 1 -31 -102 -32 -32 -1 -58 1 -57 4 2 15 18 43
18 33 1 -8 21 -12 66 -10 64 2 66 3 63 27 -2 19 -10 26 -32 28 -15 2 -26 0
-23 -5 6 -9 -217 1 -250 12 -49 16 -16 20 147 18 99 -1 170 2 170 8 0 5 7 9
16 9 11 0 14 -6 9 -22z m-2240 -8 c-3 -5 -14 -10 -23 -11 -12 0 -10 -3 7 -10
13 -5 28 -6 35 -1 6 5 34 6 61 3 55 -7 164 5 180 20 17 17 80 10 103 -11 24
-23 110 -32 272 -30 61 0 81 -2 70 -9 -8 -6 -23 -11 -33 -11 -10 0 -15 -4 -12
-10 4 -6 -20 -10 -64 -10 -45 0 -71 -4 -71 -11 0 -6 7 -9 15 -5 27 10 16 -3
-16 -20 -24 -12 -30 -12 -27 -2 3 7 -4 18 -16 25 -19 11 -19 12 -3 13 10 0 17
6 14 13 -4 13 -84 16 -156 5 -41 -6 -48 6 -7 14 11 1 21 8 23 14 5 15 -32 25
-45 12 -27 -27 -347 -32 -364 -5 -12 18 -10 25 10 30 32 9 53 7 47 -3z m2015
-104 c19 -1 72 -3 118 -4 l82 -2 0 -45 c0 -25 5 -45 10 -45 6 0 10 -5 10 -12
0 -6 -8 -4 -19 6 -16 15 -25 16 -62 6 -40 -11 -73 -10 -110 5 -13 5 -16 0 -16
-19 0 -23 5 -26 56 -36 31 -7 77 -16 102 -21 25 -6 52 -9 59 -7 8 2 16 -6 18
-16 3 -14 0 -17 -12 -13 -9 4 -16 1 -16 -6 0 -8 -3 -8 -9 2 -6 10 -19 12 -47
6 -63 -12 -212 -7 -242 9 -19 9 -34 11 -52 4 -14 -5 -33 -7 -43 -4 -22 5 -150
-14 -157 -24 -3 -4 -21 -11 -40 -14 -27 -6 -32 -5 -20 4 18 14 -30 6 -100 -15
-26 -8 -88 -14 -145 -14 -69 1 -111 -4 -137 -15 -42 -18 -98 -21 -98 -6 0 6
15 10 34 10 18 0 39 6 45 14 9 11 -9 14 -102 20 -63 4 -121 4 -131 0 -10 -4
-25 1 -36 11 -18 17 -20 17 -20 1 0 -10 -11 -19 -30 -22 -59 -12 -29 -22 53
-17 76 4 80 3 63 -11 -11 -9 -31 -17 -45 -17 -83 -4 -127 -7 -207 -14 -49 -5
-98 -9 -109 -10 -51 -5 -105 -18 -105 -25 0 -5 -17 -12 -37 -15 -21 -3 -49 -8
-61 -11 -17 -3 -23 -1 -20 8 3 7 24 15 48 18 58 7 66 30 11 30 -23 0 -41 5
-41 10 0 11 43 15 146 11 39 -2 74 1 78 7 6 10 -84 22 -172 22 -93 0 -47 20
59 26 63 3 98 10 105 19 6 8 26 14 45 13 19 0 108 3 199 7 116 4 161 3 150 -4
-11 -8 5 -11 60 -12 160 -4 254 8 271 33 3 5 42 6 88 2 63 -5 81 -10 77 -20
-7 -18 28 -19 46 -1 16 15 30 16 260 20 103 1 190 5 193 8 3 3 -28 9 -68 12
-40 4 -91 14 -112 23 -27 11 -52 14 -80 10 -114 -19 -278 -22 -283 -6 -2 5
-13 10 -23 10 -11 0 -18 -4 -14 -9 8 -14 -34 -25 -87 -22 -26 1 -56 -2 -67 -8
-33 -18 -165 -33 -192 -22 -20 8 -17 10 25 10 52 1 54 17 4 23 -24 3 -25 5
-13 22 13 18 31 19 232 21 135 2 229 7 246 14 31 12 51 6 41 -11 -5 -8 3 -9
26 -5 18 4 39 7 47 7 8 0 12 4 9 9 -3 4 -33 11 -66 15 -64 7 -73 16 -39 40 19
13 24 13 36 0 16 -15 53 -19 53 -5 0 5 -9 11 -20 14 -21 5 -28 27 -9 27 7 0
29 -5 50 -11 30 -9 42 -9 53 0 11 9 20 10 36 1 17 -9 26 -8 43 4 14 9 35 13
57 10 19 -3 51 -6 70 -8z m344 -1137 c51 -15 86 -20 126 -16 30 3 76 2 101 -2
33 -5 49 -4 58 6 13 15 33 13 38 -3 2 -9 -86 -54 -107 -54 -5 0 -27 -9 -47
-20 -44 -23 -107 -25 -281 -9 -99 9 -130 9 -203 -5 -102 -19 -154 -21 -95 -3
38 12 61 37 34 37 -10 0 -9 3 2 10 20 13 67 13 72 -1 2 -6 40 -12 93 -13 50
-2 113 -8 141 -15 58 -13 195 3 269 32 l40 16 -70 2 c-38 1 -83 4 -100 8 -16
3 -61 3 -100 -1 -113 -11 -231 -19 -220 -14 6 3 36 10 68 16 55 11 69 29 24
31 -20 1 -20 2 3 9 42 14 80 11 154 -11z m-724 -59 c-8 -5 -52 -10 -97 -10
-60 0 -83 -4 -83 -12 0 -10 -55 -13 -237 -15 -151 -1 -239 -6 -243 -13 -7 -11
-142 -49 -177 -50 -22 0 -40 -17 -29 -27 18 -19 283 6 312 29 15 11 125 40
131 34 3 -2 -5 -7 -16 -11 -12 -3 -21 -12 -21 -20 0 -13 -32 -20 -137 -31 -54
-6 -66 -16 -36 -32 12 -7 -3 -13 -58 -22 -96 -17 -112 -25 -79 -39 24 -11 24
-11 -5 -6 -16 3 -63 6 -102 7 -90 4 -92 22 -3 26 35 1 81 11 104 21 l41 19
-85 -2 c-47 -1 -94 -7 -105 -13 -27 -16 -227 -44 -295 -42 -30 1 -111 -2 -179
-6 -98 -6 -122 -5 -116 4 4 7 16 11 26 8 11 -3 17 -1 13 4 -3 5 9 9 26 9 19 0
29 -4 25 -10 -4 -7 8 -8 37 -4 53 8 61 14 20 14 -37 0 -52 18 -20 24 48 10
120 14 107 5 -29 -18 8 -24 133 -22 129 2 193 14 185 37 -2 6 -12 12 -23 14
-10 1 -44 7 -74 14 l-55 11 35 13 c42 15 119 19 104 5 -5 -6 -29 -11 -54 -14
-44 -3 -44 -4 10 -5 30 -1 77 5 104 13 27 8 63 15 81 15 17 0 36 5 42 11 6 6
28 15 49 20 148 38 174 41 334 41 91 -1 183 3 205 7 62 12 223 13 205 1z
m1027 -156 c26 -17 109 -19 119 -3 8 14 20 1 28 -35 6 -23 4 -27 -8 -23 -9 4
-18 2 -21 -3 -4 -6 -31 -10 -62 -10 -55 0 -163 -28 -163 -42 0 -4 27 -5 60 -1
50 5 64 3 80 -12 16 -14 31 -17 80 -12 46 4 60 2 60 -8 0 -7 3 -20 6 -29 3 -9
1 -16 -5 -16 -6 0 -11 10 -12 23 0 22 0 22 -9 1 -5 -14 -27 -26 -67 -38 -92
-28 -91 -27 -68 -36 15 -7 11 -9 -20 -10 -22 0 -60 -5 -84 -11 -50 -11 -67 -5
-27 10 29 12 34 21 11 21 -18 0 -56 -40 -49 -52 3 -4 28 -8 57 -8 60 0 54 -9
-28 -38 -67 -24 -137 -32 -175 -22 l-25 7 25 11 c20 9 10 10 -53 9 -61 -2 -80
-6 -88 -19 -5 -10 -28 -19 -59 -23 -27 -4 -66 -18 -86 -31 -19 -13 -56 -29
-82 -35 -25 -5 -52 -15 -59 -21 -7 -5 -20 -7 -29 -4 -9 4 -26 3 -38 0 -20 -7
-21 -7 -1 -14 25 -9 -194 -23 -228 -15 -16 4 -47 -1 -79 -13 -29 -11 -78 -23
-108 -27 l-55 -7 22 21 c13 12 35 21 53 21 17 0 41 5 53 12 21 11 20 12 -16
19 -44 7 -130 -8 -121 -22 3 -5 -12 -9 -33 -10 -21 0 -46 -4 -57 -8 -10 -4
-46 -1 -80 6 -43 9 -80 10 -126 3 -110 -16 -172 -30 -186 -41 -8 -6 -58 -13
-111 -16 -54 -3 -116 -11 -137 -18 -41 -14 -136 -9 -136 6 0 5 -15 9 -33 9
-18 0 -38 5 -43 10 -7 7 -20 6 -40 -5 -29 -15 -28 -15 40 -15 95 0 73 -18 -24
-20 -106 -3 -130 -1 -130 9 0 5 9 11 21 14 12 3 18 10 15 15 -9 16 30 20 187
21 82 0 156 5 165 11 12 7 -4 9 -55 5 -39 -3 -74 -2 -76 3 -3 4 11 9 31 10 69
4 115 14 150 34 34 19 82 18 108 -3 6 -5 19 -6 30 -4 10 3 35 8 54 13 23 5 51
3 84 -6 33 -10 50 -11 55 -4 4 7 60 12 141 13 113 1 201 12 219 26 2 1 -2 9
-9 18 -17 21 -7 29 20 15 12 -6 63 -11 123 -10 138 2 145 1 152 -10 8 -13 45
-13 45 0 0 6 25 10 56 10 34 0 53 -4 49 -10 -9 -14 111 -13 152 2 50 18 40 27
-24 22 -32 -2 -51 -1 -43 2 8 4 21 12 29 18 7 6 33 12 58 13 24 2 70 14 101
27 31 13 72 27 90 31 59 12 27 16 -59 6 -46 -5 -98 -17 -116 -26 -17 -9 -51
-20 -75 -24 -24 -5 -35 -9 -25 -10 9 -1 17 -6 17 -12 0 -6 -6 -9 -13 -6 -8 3
-49 -1 -92 -10 -56 -10 -88 -12 -114 -5 l-36 10 51 1 c27 1 54 5 60 10 5 5 18
11 29 14 11 3 -17 3 -62 0 -53 -4 -83 -2 -83 5 0 6 -14 5 -37 -4 -21 -7 -62
-13 -90 -14 -29 0 -53 -4 -53 -10 0 -13 -37 -13 -45 0 -3 5 -25 7 -49 4 -24
-4 -51 -2 -60 3 -13 7 0 12 51 22 37 8 100 24 140 37 39 13 79 24 89 24 10 0
14 3 11 7 -4 3 -49 6 -100 5 -59 -1 -103 3 -122 12 l-30 13 47 8 c25 4 61 3
80 -1 18 -4 44 -7 58 -7 104 5 126 7 135 13 13 9 99 30 122 29 16 0 -17 -16
-70 -33 -36 -12 -7 -24 35 -15 56 12 99 30 94 38 -7 11 30 13 162 11 90 -1
127 2 139 12 14 10 15 10 9 0 -6 -10 0 -12 31 -7 170 27 198 37 153 53 -16 6
-8 8 28 8 47 0 82 15 82 35 0 10 -152 5 -169 -6 -7 -4 -38 -6 -69 -5 -31 1
-59 1 -62 0 -10 -5 -60 -9 -60 -5 0 3 8 14 17 25 14 16 31 20 83 21 36 1 55 4
43 6 -22 4 -22 6 -7 29 16 24 44 33 44 14 0 -5 11 -10 24 -10 13 0 26 -5 28
-11 4 -13 207 -12 278 0 25 5 35 9 24 10 -12 0 -38 8 -58 16 -36 15 -57 17
-194 19 -64 0 -71 2 -55 14 24 18 247 7 280 -14z m-1269 4 c16 -16 395 -14
492 2 93 16 127 3 45 -17 -105 -25 -216 -34 -343 -29 -81 4 -121 3 -117 -4 9
-15 -36 -12 -117 6 -45 10 -85 14 -112 9 -22 -4 -54 -9 -71 -11 -16 -2 -66
-11 -109 -19 -49 -9 -93 -12 -115 -8 -33 7 -30 8 34 15 71 6 176 28 208 42 9
5 51 6 92 4 54 -2 76 0 80 9 6 16 18 16 33 1z m497 -68 c152 -16 244 -33 249
-47 3 -8 -2 -13 -14 -13 -11 0 -20 -4 -20 -10 0 -6 28 -10 65 -10 36 0 65 -4
65 -8 0 -5 -56 -9 -125 -9 -69 0 -125 3 -125 8 0 5 12 9 27 9 14 0 23 3 20 7
-4 3 1 12 11 20 15 13 13 14 -17 9 -51 -9 -149 -16 -128 -10 9 3 17 10 17 15
0 6 -33 8 -87 5 -59 -4 -77 -3 -55 3 59 16 48 23 -22 16 -122 -13 -254 -11
-268 4 -11 11 -6 13 32 8 25 -3 65 -1 90 3 60 10 187 10 285 0z m679 -316 c13
-12 29 -14 87 -8 53 5 70 4 65 -5 -4 -6 -25 -14 -47 -17 -57 -9 -48 -22 21
-30 46 -5 60 -10 58 -21 -2 -11 -26 -15 -108 -18 -58 -1 -116 -6 -130 -10 -14
-4 -51 -12 -82 -18 -36 -7 -58 -16 -58 -24 0 -7 -11 -13 -24 -13 -14 0 -37 -5
-53 -11 -15 -6 -68 -19 -117 -30 -49 -10 -99 -25 -110 -33 -12 -7 -36 -17 -54
-21 -18 -3 -30 -10 -27 -15 3 -5 -19 -17 -50 -26 -30 -10 -52 -20 -49 -23 10
-10 198 -1 269 14 39 8 111 19 160 25 50 6 122 15 160 20 39 5 90 16 115 25
25 9 57 14 73 11 15 -3 27 -1 27 4 0 4 26 12 58 15 74 9 94 14 86 26 -3 6 -41
7 -95 3 -58 -5 -89 -3 -89 3 0 6 37 13 83 17 45 3 102 8 127 11 39 4 42 4 20
-6 l-25 -11 30 -9 c19 -5 32 -5 36 3 4 6 10 1 14 -12 8 -25 -14 -49 -44 -51
-20 0 -137 -15 -266 -33 -242 -34 -404 -56 -450 -61 -88 -8 -125 -17 -119 -26
3 -5 16 -6 29 -3 30 7 236 -15 249 -27 6 -5 -3 -9 -21 -9 -17 0 -36 -7 -43
-15 -7 -8 -24 -15 -37 -15 -14 0 -59 -9 -101 -19 -90 -22 -158 -31 -167 -23
-3 4 25 14 62 23 37 9 58 17 46 18 -46 2 -21 21 27 21 28 0 50 3 50 8 0 11
-704 1 -814 -12 -40 -5 -79 -2 -120 8 -34 8 -101 17 -149 19 -49 3 -91 7 -93
10 -3 2 24 8 58 12 l63 9 -89 7 c-49 4 -94 13 -100 19 -8 9 4 11 52 8 34 -2
57 -1 50 4 -8 5 -2 8 17 8 17 0 47 3 67 6 33 6 36 9 27 25 -7 15 -6 17 6 13 8
-4 15 -12 15 -20 0 -19 69 -18 94 1 11 8 31 15 45 15 13 0 33 8 44 17 16 15
35 17 115 15 99 -4 116 -7 107 -21 -2 -5 14 -2 36 6 29 10 62 12 114 7 77 -7
286 10 345 28 69 21 58 31 -25 23 -102 -10 -341 -16 -378 -8 -22 4 -26 8 -17
17 7 7 61 11 161 11 82 0 149 4 149 8 0 5 -10 5 -22 2 -19 -6 -21 -5 -11 6 10
10 26 11 75 3 88 -15 136 -2 151 39 1 5 15 10 30 11 23 3 27 -1 27 -20 0 -27
7 -30 29 -11 20 17 144 57 176 57 14 0 25 4 25 8 0 16 -13 21 -29 13 -23 -12
-91 -21 -91 -13 0 9 72 32 98 32 10 0 23 5 29 11 11 11 92 37 120 38 6 1 19
-6 27 -15z m-2348 -233 c-3 -5 -26 -12 -51 -15 -24 -4 -48 -12 -51 -18 -5 -7
25 -8 102 -3 60 4 129 9 154 10 25 2 80 9 123 16 72 12 80 12 88 -4 7 -11 23
-17 47 -17 29 -1 34 -3 20 -11 -10 -5 -46 -9 -80 -8 -114 2 -482 -8 -554 -16
-50 -5 -77 -4 -90 4 -18 12 -17 12 4 8 12 -3 37 -1 55 3 17 5 46 10 62 12 17
2 41 10 55 18 42 23 127 39 116 21z m2002 -226 c-3 -3 -41 -15 -84 -25 -44
-11 -104 -29 -134 -41 -46 -18 -79 -22 -194 -25 -82 -1 -143 -7 -149 -13 -11
-11 41 -17 106 -13 15 1 27 -2 27 -7 0 -5 28 -9 63 -8 82 2 239 -13 252 -24 5
-5 -8 -9 -33 -9 -24 0 -42 -5 -42 -11 0 -8 -28 -9 -92 -4 -51 4 -127 7 -168 8
-59 0 -64 1 -22 4 52 4 68 17 35 27 -10 3 -69 6 -131 7 -91 2 -115 -1 -130
-14 -10 -9 -33 -20 -50 -23 -52 -10 -48 -24 7 -24 27 0 52 4 56 9 6 10 154 11
153 1 -2 -22 8 -28 55 -33 28 -3 97 -13 152 -21 55 -8 147 -18 205 -22 96 -7
101 -9 55 -15 -31 -4 -109 1 -210 14 -88 11 -178 21 -200 22 -22 1 -77 7 -121
14 -58 9 -87 10 -101 3 -13 -7 -52 -8 -119 -1 -68 6 -107 6 -125 -2 -14 -5
-48 -9 -75 -7 l-49 3 60 14 c33 7 78 19 100 26 39 12 39 12 -60 19 -78 6 -109
5 -140 -7 -78 -29 -161 -49 -185 -45 -19 3 -10 8 35 21 33 10 85 25 115 35 43
13 92 17 227 17 151 0 174 2 190 18 16 16 16 17 -12 18 -17 0 -23 3 -15 6 8 3
18 10 21 16 4 5 89 11 190 13 242 5 290 10 356 40 53 25 114 41 162 43 13 1
22 -1 19 -4z m-1338 -240 c-11 -13 -7 -15 28 -15 22 0 76 -7 119 -15 53 -11
102 -13 154 -9 52 4 79 3 83 -5 4 -6 20 -11 35 -11 20 0 30 -6 34 -20 3 -12
14 -20 27 -20 11 0 34 -7 51 -15 16 -9 60 -19 98 -24 38 -5 77 -13 86 -18 27
-16 -146 -2 -177 13 -15 8 -37 14 -50 14 -13 1 -41 9 -63 20 -22 11 -50 19
-62 20 -13 0 -23 5 -23 11 0 5 -5 7 -12 3 -7 -4 -53 -9 -103 -10 -49 -1 -115
-10 -145 -19 -30 -9 -75 -22 -100 -29 -34 -10 -41 -15 -28 -21 19 -7 221 9
251 21 9 3 17 2 17 -3 0 -30 -261 -54 -310 -28 -29 15 -117 8 -240 -19 -100
-22 -162 -27 -195 -17 -29 9 -28 9 15 10 25 0 115 14 200 30 85 16 187 35 225
42 72 12 118 28 82 29 -10 0 -15 5 -12 10 3 6 36 10 73 10 l67 1 -48 19 c-26
10 -71 19 -100 19 -76 2 -96 4 -91 13 3 4 20 8 37 9 18 0 41 4 52 9 31 13 39
12 25 -5z m1490 -150 c161 -4 221 -9 280 -27 30 -8 53 -5 140 20 58 17 107 29
109 27 2 -2 1 -16 -3 -30 -4 -16 -13 -25 -25 -25 -32 0 -50 -11 -44 -26 3 -9
-2 -14 -14 -14 -10 0 -24 -5 -29 -10 -6 -6 -42 -12 -80 -15 l-69 -4 55 9 c70
13 120 29 120 40 0 14 -42 19 -63 8 -11 -5 -70 -14 -130 -19 -77 -6 -118 -14
-136 -26 -14 -10 -44 -18 -66 -19 -22 -1 -67 -7 -100 -14 -63 -12 -155 -8
-196 10 -18 7 5 9 84 4 69 -4 107 -2 107 4 0 11 -177 27 -206 18 -11 -3 -46
-1 -79 5 -33 6 -89 12 -125 13 -115 3 -175 8 -157 13 15 4 16 7 6 20 -11 13
-4 14 57 9 38 -3 130 -8 206 -12 93 -4 145 -11 165 -21 38 -21 192 -19 172 2
-3 2 -40 5 -83 7 -71 1 -79 3 -87 25 -6 17 -16 23 -38 23 -37 0 -84 17 -77 29
3 4 38 2 78 -6 40 -8 143 -16 228 -18z"/>
<path d="M1570 875 c-8 -2 -36 -7 -63 -10 -26 -3 -45 -11 -41 -16 9 -16 613 4
643 21 8 4 -75 6 -185 3 -109 -3 -208 -5 -219 -4 -11 0 -42 3 -70 5 -27 3 -57
3 -65 1z"/>
<path d="M2270 2329 c-36 -5 -134 -11 -219 -14 -85 -2 -176 -9 -202 -15 -26
-7 -58 -9 -71 -5 -17 4 -19 3 -8 -4 20 -12 118 -32 200 -40 62 -7 64 -8 37
-19 -45 -19 -23 -30 39 -19 39 6 63 6 74 -1 10 -6 33 -7 59 -2 59 11 63 20 8
20 -25 0 -49 5 -52 10 -3 6 3 10 14 10 11 0 23 5 27 11 5 8 -11 9 -54 4 -34
-4 -76 -4 -94 0 -33 8 -33 8 -8 17 33 12 204 12 208 0 3 -10 105 -7 122 3 6 4
8 11 5 16 -4 5 19 9 52 9 44 1 54 3 41 11 -26 15 -104 18 -178 8z"/>
<path d="M945 2291 c-9 -24 16 -31 91 -24 46 4 73 2 78 -5 9 -15 -4 -21 -53
-23 -59 -4 -63 -20 -4 -18 26 1 72 -2 100 -6 35 -5 68 -3 98 5 70 20 63 30
-16 23 -53 -5 -70 -3 -65 5 4 7 17 12 29 12 21 1 21 1 -3 15 l-25 14 24 1 c13
0 21 3 17 8 -4 4 -66 7 -137 7 -102 0 -130 -3 -134 -14z"/>
<path d="M679 2256 c-2 -2 -40 -6 -83 -10 -43 -3 -82 -9 -85 -12 -3 -4 24 -4
62 -1 54 5 67 4 67 -8 0 -17 -58 -34 -133 -41 -76 -6 -180 -23 -186 -31 -3 -3
17 -2 44 3 28 4 129 8 225 9 96 1 183 5 193 9 25 12 21 26 -13 37 -36 13 -30
29 11 29 16 0 29 5 29 10 0 9 -121 15 -131 6z"/>
<path d="M268 2243 c34 -14 2 -20 -83 -15 -82 4 -95 3 -90 -10 5 -13 -3 -14
-44 -10 -49 4 -51 3 -51 -20 0 -13 5 -29 12 -36 9 -9 9 -12 0 -12 -7 0 -12
-11 -12 -24 0 -23 3 -23 77 -24 43 0 85 -2 93 -6 23 -8 118 -15 140 -9 11 3
17 9 14 14 -3 5 7 9 23 10 15 0 46 9 68 20 l40 19 -40 -5 c-22 -3 -76 -12
-120 -20 -100 -18 -125 -19 -125 -1 0 8 22 18 60 26 62 13 113 39 78 40 -9 0
-19 4 -22 8 -3 5 18 9 47 9 49 0 59 1 97 16 8 3 29 10 45 15 22 7 3 9 -71 5
-70 -4 -103 -2 -108 6 -4 6 -15 11 -24 10 -11 0 -12 -3 -4 -6z"/>
<path d="M1495 2170 c-27 -4 -57 -10 -66 -14 -10 -4 -20 -2 -24 3 -3 6 -12 8
-18 4 -18 -11 -92 -12 -192 -2 -74 8 -98 7 -127 -5 -19 -8 -37 -13 -40 -11 -2
3 -66 0 -142 -6 -102 -8 -150 -8 -183 1 -32 8 -49 8 -56 1 -8 -8 -5 -11 8 -11
15 0 16 -3 7 -12 -9 -9 -21 -9 -48 0 -29 9 -39 8 -50 -3 -8 -8 -35 -17 -60
-21 -26 -4 -55 -15 -65 -25 -25 -25 -83 -39 -164 -39 -39 0 -75 -4 -80 -9 -6
-5 -35 -4 -74 4 -35 8 -69 11 -76 9 -7 -3 -16 0 -20 6 -5 8 12 10 64 4 50 -4
71 -3 71 5 0 12 -21 17 -102 25 l-56 6 -1 -135 c-2 -134 -1 -135 21 -135 27 1
65 26 48 32 -7 2 66 5 162 6 95 1 208 6 251 10 42 4 77 5 77 2 0 -6 -168 -30
-207 -30 -13 0 -23 -4 -23 -10 0 -6 55 -8 153 -5 92 3 140 1 122 -4 -29 -8
-28 -9 13 -10 23 0 42 3 42 8 0 5 21 11 48 14 152 20 233 33 227 38 -12 13 56
18 76 6 15 -9 21 -9 27 0 4 7 26 14 49 15 50 4 46 18 -4 18 -22 0 -41 -7 -49
-17 -12 -17 -13 -17 -26 -1 -19 26 -101 38 -183 28 -38 -5 -73 -6 -78 -3 -23
14 -80 20 -114 13 -21 -5 -44 -5 -52 0 -12 7 -8 9 16 10 18 0 52 6 75 14 24 8
70 17 103 20 63 6 63 5 -45 -21 -47 -12 70 -21 148 -12 47 6 81 5 92 -1 14 -7
31 -6 62 6 24 9 60 17 80 18 20 2 43 8 50 14 15 12 61 5 53 -8 -3 -4 -20 -11
-40 -14 -38 -8 -57 -26 -26 -26 11 0 22 4 25 9 8 12 86 19 86 8 0 -10 71 0 83
12 5 5 -7 12 -25 16 -29 7 -30 9 -10 12 24 5 86 -20 97 -37 3 -6 -3 -10 -14
-10 -11 0 -23 -4 -26 -10 -4 -6 13 -10 42 -11 158 -2 300 -12 321 -23 20 -10
35 -10 79 0 98 23 88 33 -44 44 -54 4 -146 7 -205 6 -60 -1 -108 2 -108 6 0 5
17 9 38 10 59 2 83 4 150 12 35 5 78 9 95 11 54 5 87 17 87 30 0 7 17 16 38
19 20 4 51 10 67 13 l30 7 -30 7 c-83 19 -247 -4 -253 -35 -3 -14 -14 -17 -65
-16 -34 1 -83 -2 -108 -6 -26 -3 -49 -2 -52 2 -3 5 9 9 26 10 31 0 107 17 234
50 59 16 76 34 32 34 -10 0 -19 5 -19 10 0 11 43 14 54 3 3 -4 12 -8 19 -9 7
-1 20 -5 30 -9 12 -5 17 -2 17 9 0 20 13 20 57 0 41 -20 157 -15 215 10 21 9
66 16 103 16 36 0 65 4 65 9 0 15 -45 21 -81 11 -50 -15 -132 -13 -127 3 3 6
20 15 39 19 19 3 -35 6 -119 6 -165 -1 -219 -8 -214 -27 2 -9 -30 -11 -125
-10 -154 2 -221 17 -85 18 54 1 92 5 92 11 0 6 -20 10 -44 10 -24 0 -50 2 -58
4 -7 1 -35 0 -63 -4z"/>
<path d="M230 1774 c0 -7 21 -15 53 -19 28 -4 64 -14 79 -21 15 -8 43 -14 62
-14 23 0 39 -6 45 -17 6 -10 11 -13 11 -8 0 6 29 11 64 11 44 1 79 8 110 24
92 44 65 52 -144 44 -85 -3 -183 -2 -217 4 -49 7 -63 6 -63 -4z"/>
<path d="M85 1745 c-5 -2 -27 -6 -47 -10 -27 -4 -38 -11 -38 -24 0 -14 6 -17
29 -13 16 2 32 -1 35 -7 5 -7 -5 -11 -28 -11 -20 0 -36 -4 -36 -10 0 -6 38
-10 94 -10 53 0 98 4 101 10 3 6 23 10 43 10 50 1 161 26 142 32 -59 21 -117
31 -195 34 -49 2 -94 2 -100 -1z"/>
</g>
</svg>
